<svg width="177" height="242" viewBox="0 0 177 242" fill="none" xmlns="http://www.w3.org/2000/svg">
<rect width="177" height="242" rx="29" fill="#3F3F3F"/>
<rect width="108.905" height="9.69651" transform="matrix(1 -4.97113e-05 0.000181111 1 27 203.004)" fill="#D9D9D9" fill-opacity="0.4"/>
<rect width="9.85889" height="9.69651" transform="matrix(1 -4.97113e-05 0.000181111 1 142.19 202.997)" fill="#D9D9D9" fill-opacity="0.4"/>
<rect width="126.274" height="10.7529" transform="matrix(1 -4.97113e-05 0.000181111 1 26.001 35.4775)" fill="#D9D9D9" fill-opacity="0.4"/>
<rect width="72.7023" height="15.224" transform="matrix(1 -4.97113e-05 0.000181111 1 26 95.0063)" fill="#D9D9D9" fill-opacity="0.4"/>
<rect width="75.8975" height="15.224" transform="matrix(1 -4.97113e-05 0.000181111 1 75 138.003)" fill="#D9D9D9" fill-opacity="0.4"/>
<rect width="21.383" height="15.224" transform="matrix(1 -4.97113e-05 0.000181111 1 26 117.003)" fill="#D9D9D9" fill-opacity="0.4"/>
<rect width="30.8976" height="15.224" transform="matrix(1 -4.97113e-05 0.000181111 1 120 117.001)" fill="#D9D9D9" fill-opacity="0.4"/>
<rect width="9.47949" height="15.224" transform="matrix(1 -4.97113e-05 0.000181111 1 142 95.0015)" fill="#D9D9D9" fill-opacity="0.4"/>
<rect width="8.99746" height="14" transform="matrix(1 -4.97113e-05 0.000181111 1 26 139)" fill="#D9D9D9" fill-opacity="0.4"/>
<rect width="58.5371" height="11.6814" transform="matrix(1 -2.68053e-05 0.000335877 1 54 118.001)" fill="#FFA600"/>
<rect width="21" height="20.998" transform="matrix(1 1.61825e-05 -4.01563e-05 1 27.001 161)" fill="#FFA600"/>
<rect width="125.675" height="25.8686" transform="matrix(1 -5.15166e-05 0.000174765 1 26 58.4199)" fill="#FFA600"/>
<rect x="111" y="95" width="25" height="16" fill="#FFA600"/>
<rect x="40" y="138" width="25" height="16" fill="#FFA600"/>
<rect width="97" height="20.998" transform="matrix(1 1.61825e-05 -4.01563e-05 1 55.001 161)" fill="#FFA600"/>
</svg>
