<svg width="177" height="242" viewBox="0 0 177 242" fill="none" xmlns="http://www.w3.org/2000/svg">
<rect width="177" height="242" rx="11" fill="#D9D9D9"/>
<rect x="12" y="21" width="50" height="14" fill="#4B4B4B" fill-opacity="0.31"/>
<rect x="12" y="145" width="50" height="14" fill="#4B4B4B" fill-opacity="0.31"/>
<rect x="67" y="145" width="20" height="14" fill="#4B4B4B" fill-opacity="0.31"/>
<rect x="67" y="21" width="20" height="14" fill="#4B4B4B" fill-opacity="0.31"/>
<rect x="92" y="21" width="75" height="14" fill="#4B4B4B" fill-opacity="0.31"/>
<rect x="92" y="145" width="75" height="14" fill="#4B4B4B" fill-opacity="0.31"/>
<rect x="12" y="52" width="41" height="14" fill="#4B4B4B" fill-opacity="0.31"/>
<rect x="144" y="52" width="23" height="14" fill="#4B4B4B" fill-opacity="0.31"/>
<rect x="12" y="83" width="95" height="14" fill="#4B4B4B" fill-opacity="0.31"/>
<rect width="95" height="15" transform="matrix(1 0 0 -1 12 223)" fill="#4B4B4B" fill-opacity="0.31"/>
<rect x="62" y="52" width="74" height="14" fill="#F6A400"/>
<rect x="117" y="83" width="50" height="14" fill="#4B4B4B" fill-opacity="0.31"/>
<rect width="50" height="15" transform="matrix(1 0 0 -1 117 223)" fill="#4B4B4B" fill-opacity="0.31"/>
<rect x="12" y="114" width="22" height="14" fill="#4B4B4B" fill-opacity="0.31"/>
<rect width="22" height="15" transform="matrix(1 0 0 -1 12 191)" fill="#4B4B4B" fill-opacity="0.31"/>
<rect x="41" y="114" width="69" height="14" fill="#4B4B4B" fill-opacity="0.31"/>
<rect width="69" height="15" transform="matrix(1 0 0 -1 41 191)" fill="#4B4B4B" fill-opacity="0.31"/>
<rect x="117" y="114" width="50" height="14" fill="#4B4B4B" fill-opacity="0.31"/>
<rect width="50" height="15" transform="matrix(1 0 0 -1 117 191)" fill="#4B4B4B" fill-opacity="0.31"/>
</svg>
