<svg width="177" height="242" viewBox="0 0 177 242" fill="none" xmlns="http://www.w3.org/2000/svg">
<rect width="177" height="242" rx="11" fill="#636363"/>
<rect width="32.9472" height="36.2085" transform="matrix(1 -6.48239e-05 0.000138888 1 134.054 77.5996)" fill="#D9D9D9"/>
<rect width="78.0981" height="36.2085" transform="matrix(1 -6.48239e-05 0.000138888 1 60 181.007)" fill="#D9D9D9"/>
<rect width="77.4359" height="36.2085" transform="matrix(1 -0.000115314 0.000247065 1 89 25.0024)" fill="#D9D9D9"/>
<rect width="20" height="36.2085" transform="matrix(1 -0.000115314 0.000247065 1 147 181.002)" fill="#D9D9D9"/>
<rect width="70.356" height="36.2085" transform="matrix(1 -6.48239e-05 0.000138888 1 12.0012 25.0049)" fill="#D9D9D9"/>
<rect width="39.3978" height="36.2085" transform="matrix(1 -6.48239e-05 0.000138888 1 12 181.002)" fill="#D9D9D9"/>
<rect x="12" y="132" width="25" height="31" fill="#D9D9D9"/>
<rect width="109.688" height="34.8422" transform="matrix(1 -6.20057e-05 0.000145201 1 12 78.0073)" fill="#FFA600"/>
<rect x="47" y="132" width="120" height="31" fill="#D9D9D9"/>
</svg>
