<svg width="177" height="242" viewBox="0 0 177 242" fill="none" xmlns="http://www.w3.org/2000/svg">
<rect width="177" height="242" rx="29" fill="#3F3F3F"/>
<rect width="26.7813" height="20.8553" transform="matrix(1 -4.8687e-05 0.000184921 1 125 61.0015)" fill="#D9D9D9"/>
<rect width="63.4826" height="11.6814" transform="matrix(1 -2.94685e-05 0.000305522 1 65.0173 120.688)" fill="#D9D9D9"/>
<rect width="62.9443" height="16.1077" transform="matrix(1 -6.35677e-05 0.000448183 1 88.5901 32.0039)" fill="#D9D9D9"/>
<rect width="16.2571" height="11.6814" transform="matrix(1 -5.24208e-05 0.000543486 1 135.736 120.687)" fill="#D9D9D9"/>
<rect width="57.1893" height="16.1077" transform="matrix(1 -3.6223e-05 0.000248551 1 26.0012 32.0059)" fill="#D9D9D9"/>
<rect width="126.274" height="15.224" transform="matrix(1 -4.97113e-05 0.000181111 1 26 190.008)" fill="#D9D9D9"/>
<rect width="32.0247" height="11.6814" transform="matrix(1 -2.68053e-05 0.000335877 1 26.0002 120.687)" fill="#D9D9D9"/>
<rect x="26" y="95" width="21" height="16" fill="#D9D9D9"/>
<rect width="21" height="16.5051" transform="matrix(1 1.61825e-05 -4.01563e-05 1 131 140.495)" fill="#D9D9D9"/>
<rect width="89.1608" height="25.8686" transform="matrix(1 -5.15166e-05 0.000174765 1 26.0002 58.4199)" fill="#FFA600"/>
<rect x="55" y="95" width="97" height="16" fill="#D9D9D9"/>
<rect width="97" height="16.5051" transform="matrix(1 1.61825e-05 -4.01563e-05 1 26.0007 140.493)" fill="#D9D9D9"/>
</svg>
